<mxfile host="65bd71144e">
    <diagram id="9bh0cdp2ASUkYgQ-xmnt" name="Page-1">
        <mxGraphModel dx="616" dy="457" grid="1" gridSize="10" guides="1" tooltips="1" connect="1" arrows="1" fold="1" page="1" pageScale="1" pageWidth="827" pageHeight="1169" math="0" shadow="0">
            <root>
                <mxCell id="0"/>
                <mxCell id="1" parent="0"/>
                <mxCell id="2" value="" style="rounded=1;whiteSpace=wrap;html=1;fillColor=none;" parent="1" vertex="1">
                    <mxGeometry x="10" y="18" width="360" height="462" as="geometry"/>
                </mxCell>
                <mxCell id="9" style="edgeStyle=orthogonalEdgeStyle;html=1;exitX=0.5;exitY=0;exitDx=0;exitDy=0;entryX=0.5;entryY=1;entryDx=0;entryDy=0;strokeWidth=2;endArrow=classicThin;endFill=1;endSize=1;rounded=1;" parent="1" source="3" target="5" edge="1">
                    <mxGeometry relative="1" as="geometry"/>
                </mxCell>
                <mxCell id="32" style="edgeStyle=orthogonalEdgeStyle;html=1;exitX=0.5;exitY=0;exitDx=0;exitDy=0;entryX=0;entryY=0.5;entryDx=0;entryDy=0;strokeWidth=2;fontColor=#FFFFFF;endArrow=classicThin;endFill=1;endSize=1;rounded=1;" parent="1" source="3" target="4" edge="1">
                    <mxGeometry relative="1" as="geometry">
                        <Array as="points">
                            <mxPoint x="208" y="160"/>
                            <mxPoint x="40" y="160"/>
                            <mxPoint x="40" y="49"/>
                        </Array>
                    </mxGeometry>
                </mxCell>
                <mxCell id="3" value="Add &amp;amp; Norm" style="rounded=1;whiteSpace=wrap;html=1;fillColor=#ece133;fontFamily=EHUSans;fontStyle=0" parent="1" vertex="1">
                    <mxGeometry x="75" y="180" width="265" height="22" as="geometry"/>
                </mxCell>
                <mxCell id="17" style="edgeStyle=orthogonalEdgeStyle;html=1;exitX=0.5;exitY=0;exitDx=0;exitDy=0;strokeWidth=2;fontColor=#FFFFFF;endArrow=classicThin;endFill=1;endSize=1;rounded=1;" parent="1" source="4" edge="1">
                    <mxGeometry relative="1" as="geometry">
                        <mxPoint x="207.38461538461536" y="10" as="targetPoint"/>
                    </mxGeometry>
                </mxCell>
                <mxCell id="4" value="Add &amp;amp; Norm" style="rounded=1;whiteSpace=wrap;html=1;fillColor=#ece133;fontFamily=EHUSans;fontStyle=0" parent="1" vertex="1">
                    <mxGeometry x="75" y="38" width="265" height="22" as="geometry"/>
                </mxCell>
                <mxCell id="8" style="edgeStyle=orthogonalEdgeStyle;html=1;exitX=0.5;exitY=0;exitDx=0;exitDy=0;entryX=0.5;entryY=1;entryDx=0;entryDy=0;strokeWidth=2;endArrow=classicThin;endFill=1;endSize=1;rounded=1;" parent="1" source="5" target="4" edge="1">
                    <mxGeometry relative="1" as="geometry"/>
                </mxCell>
                <mxCell id="5" value="Add &amp;amp; Norm" style="rounded=1;whiteSpace=wrap;html=1;fillColor=#56b4e9;fontFamily=EHUSans;fontStyle=0" parent="1" vertex="1">
                    <mxGeometry x="75" y="90" width="265" height="40" as="geometry"/>
                </mxCell>
                <mxCell id="20" style="html=1;exitX=0.5;exitY=0;exitDx=0;exitDy=0;entryX=0.5;entryY=1;entryDx=0;entryDy=0;strokeWidth=2;fontColor=#FFFFFF;endArrow=classicThin;endFill=1;edgeStyle=orthogonalEdgeStyle;endSize=1;rounded=1;" parent="1" source="11" target="14" edge="1">
                    <mxGeometry relative="1" as="geometry">
                        <Array as="points">
                            <mxPoint x="208" y="430"/>
                            <mxPoint x="123" y="430"/>
                            <mxPoint x="123" y="400"/>
                            <mxPoint x="95" y="400"/>
                        </Array>
                    </mxGeometry>
                </mxCell>
                <mxCell id="21" style="edgeStyle=orthogonalEdgeStyle;html=1;exitX=0.5;exitY=0;exitDx=0;exitDy=0;entryX=0.5;entryY=1;entryDx=0;entryDy=0;strokeWidth=2;fontColor=#FFFFFF;endArrow=classicThin;endFill=1;endSize=1;rounded=1;" parent="1" source="11" target="15" edge="1">
                    <mxGeometry relative="1" as="geometry"/>
                </mxCell>
                <mxCell id="22" style="edgeStyle=orthogonalEdgeStyle;html=1;exitX=0.5;exitY=0;exitDx=0;exitDy=0;entryX=0.5;entryY=1;entryDx=0;entryDy=0;strokeWidth=2;fontColor=#FFFFFF;endArrow=classicThin;endFill=1;endSize=1;rounded=1;" parent="1" source="11" target="16" edge="1">
                    <mxGeometry relative="1" as="geometry">
                        <Array as="points">
                            <mxPoint x="208" y="430"/>
                            <mxPoint x="294" y="430"/>
                            <mxPoint x="294" y="400"/>
                            <mxPoint x="320" y="400"/>
                        </Array>
                    </mxGeometry>
                </mxCell>
                <mxCell id="33" style="edgeStyle=orthogonalEdgeStyle;html=1;exitX=0.5;exitY=0;exitDx=0;exitDy=0;entryX=0;entryY=0.5;entryDx=0;entryDy=0;strokeWidth=2;fontColor=#FFFFFF;endArrow=classicThin;endFill=1;endSize=1;rounded=1;" parent="1" source="11" target="3" edge="1">
                    <mxGeometry relative="1" as="geometry">
                        <Array as="points">
                            <mxPoint x="208" y="450"/>
                            <mxPoint x="40" y="450"/>
                            <mxPoint x="40" y="191"/>
                        </Array>
                    </mxGeometry>
                </mxCell>
                <mxCell id="38" style="edgeStyle=orthogonalEdgeStyle;html=1;exitX=0.5;exitY=0;exitDx=0;exitDy=0;entryX=0.5;entryY=1;entryDx=0;entryDy=0;strokeWidth=2;endArrow=classicThin;endFill=1;endSize=1;jumpSize=3;rounded=1;movable=1;resizable=1;rotatable=1;deletable=1;editable=1;connectable=1;comic=0;noJump=0;" parent="1" source="11" target="35" edge="1">
                    <mxGeometry relative="1" as="geometry">
                        <Array as="points">
                            <mxPoint x="208" y="430"/>
                            <mxPoint x="123" y="430"/>
                            <mxPoint x="123" y="400"/>
                            <mxPoint x="150" y="400"/>
                        </Array>
                    </mxGeometry>
                </mxCell>
                <mxCell id="44" style="edgeStyle=orthogonalEdgeStyle;rounded=1;comic=0;jumpSize=3;html=1;exitX=0.5;exitY=0;exitDx=0;exitDy=0;entryX=0.5;entryY=1;entryDx=0;entryDy=0;strokeWidth=2;endArrow=classicThin;endFill=1;endSize=1;" parent="1" source="11" target="42" edge="1">
                    <mxGeometry relative="1" as="geometry">
                        <Array as="points">
                            <mxPoint x="208" y="430"/>
                            <mxPoint x="294" y="430"/>
                            <mxPoint x="294" y="400"/>
                            <mxPoint x="269" y="400"/>
                        </Array>
                    </mxGeometry>
                </mxCell>
                <mxCell id="11" value="" style="rounded=1;whiteSpace=wrap;html=1;fillColor=none;strokeColor=none;" parent="1" vertex="1">
                    <mxGeometry x="147.5" y="494" width="120" height="10" as="geometry"/>
                </mxCell>
                <mxCell id="29" style="edgeStyle=orthogonalEdgeStyle;html=1;exitX=0.5;exitY=0;exitDx=0;exitDy=0;entryX=0;entryY=0.5;entryDx=0;entryDy=0;strokeWidth=2;fontColor=#FFFFFF;endArrow=classicThin;endFill=1;endSize=1;rounded=1;" parent="1" source="14" target="34" edge="1">
                    <mxGeometry relative="1" as="geometry"/>
                </mxCell>
                <mxCell id="14" value="&lt;font color=&quot;#ffffff&quot;&gt;Q&lt;/font&gt;" style="rounded=1;whiteSpace=wrap;html=1;fillColor=#0173b2;fontFamily=EHUSans;fontStyle=0" parent="1" vertex="1">
                    <mxGeometry x="75" y="329" width="40" height="40" as="geometry"/>
                </mxCell>
                <mxCell id="30" style="edgeStyle=none;html=1;exitX=0.5;exitY=0;exitDx=0;exitDy=0;entryX=0.534;entryY=0.617;entryDx=0;entryDy=0;entryPerimeter=0;strokeWidth=2;fontColor=#FFFFFF;endArrow=classicThin;endFill=1;endSize=1;rounded=1;" parent="1" source="15" edge="1">
                    <mxGeometry relative="1" as="geometry">
                        <mxPoint x="207.58000000000015" y="280.07399999999996" as="targetPoint"/>
                    </mxGeometry>
                </mxCell>
                <mxCell id="15" value="&lt;font color=&quot;#ffffff&quot;&gt;K&lt;/font&gt;" style="rounded=1;whiteSpace=wrap;html=1;fillColor=#0173b2;fontFamily=EHUSans;fontStyle=0" parent="1" vertex="1">
                    <mxGeometry x="187.5" y="329" width="40" height="40" as="geometry"/>
                </mxCell>
                <mxCell id="31" style="edgeStyle=orthogonalEdgeStyle;html=1;exitX=0.5;exitY=0;exitDx=0;exitDy=0;entryX=1;entryY=0.5;entryDx=0;entryDy=0;strokeWidth=2;fontColor=#FFFFFF;endArrow=classicThin;endFill=1;endSize=1;rounded=1;" parent="1" source="16" target="45" edge="1">
                    <mxGeometry relative="1" as="geometry">
                        <mxPoint x="320.0600000000002" y="280.07399999999996" as="targetPoint"/>
                    </mxGeometry>
                </mxCell>
                <mxCell id="16" value="&lt;font color=&quot;#ffffff&quot;&gt;V&lt;/font&gt;" style="rounded=1;whiteSpace=wrap;html=1;fillColor=#0173b2;fontFamily=EHUSans;fontStyle=0" parent="1" vertex="1">
                    <mxGeometry x="300" y="329" width="40" height="40" as="geometry"/>
                </mxCell>
                <mxCell id="27" style="edgeStyle=orthogonalEdgeStyle;html=1;exitX=0.5;exitY=0;exitDx=0;exitDy=0;entryX=0.5;entryY=1;entryDx=0;entryDy=0;strokeWidth=2;fontColor=#FFFFFF;endArrow=classicThin;endFill=1;endSize=1;rounded=1;" parent="1" source="26" target="3" edge="1">
                    <mxGeometry relative="1" as="geometry"/>
                </mxCell>
                <mxCell id="26" value="Multi-head attention" style="rounded=1;whiteSpace=wrap;html=1;fillColor=#d55e00;fontFamily=EHUSans;fontStyle=0;fontColor=#FFFFFF;" parent="1" vertex="1">
                    <mxGeometry x="75" y="240" width="265" height="40" as="geometry"/>
                </mxCell>
                <mxCell id="50" style="edgeStyle=orthogonalEdgeStyle;rounded=1;comic=0;jumpSize=3;html=1;exitX=0.5;exitY=0;exitDx=0;exitDy=0;entryX=0.181;entryY=1.006;entryDx=0;entryDy=0;entryPerimeter=0;strokeWidth=2;endArrow=classicThin;endFill=1;endSize=1;" parent="1" source="34" target="26" edge="1">
                    <mxGeometry relative="1" as="geometry"/>
                </mxCell>
                <mxCell id="34" value="+" style="ellipse;whiteSpace=wrap;html=1;aspect=fixed;" parent="1" vertex="1">
                    <mxGeometry x="118" y="295" width="10" height="10" as="geometry"/>
                </mxCell>
                <mxCell id="53" style="edgeStyle=none;html=1;exitX=0.5;exitY=0;exitDx=0;exitDy=0;entryX=0.5;entryY=0;entryDx=0;entryDy=0;endArrow=none;endFill=0;strokeWidth=2;" edge="1" parent="1" source="35" target="52">
                    <mxGeometry relative="1" as="geometry"/>
                </mxCell>
                <mxCell id="35" value="A" style="shape=trapezoid;perimeter=trapezoidPerimeter;whiteSpace=wrap;html=1;fixedSize=1;size=15;fillColor=#de8f05;fontColor=#FFFFFF;" parent="1" vertex="1">
                    <mxGeometry x="125" y="367" width="50" height="20" as="geometry"/>
                </mxCell>
                <mxCell id="39" style="edgeStyle=orthogonalEdgeStyle;rounded=1;jumpSize=3;html=1;exitX=0.5;exitY=0;exitDx=0;exitDy=0;entryX=1;entryY=0.5;entryDx=0;entryDy=0;strokeWidth=2;endArrow=classicThin;endFill=1;endSize=1;" parent="1" source="36" target="34" edge="1">
                    <mxGeometry relative="1" as="geometry"/>
                </mxCell>
                <mxCell id="36" value="B" style="shape=trapezoid;perimeter=trapezoidPerimeter;whiteSpace=wrap;html=1;fixedSize=1;size=15;rotation=0;fillColor=#de8f05;horizontal=1;flipV=1;fontColor=#FFFFFF;" parent="1" vertex="1">
                    <mxGeometry x="125" y="328" width="50" height="20" as="geometry"/>
                </mxCell>
                <mxCell id="56" style="edgeStyle=none;html=1;exitX=0.5;exitY=0;exitDx=0;exitDy=0;strokeWidth=2;fontColor=#FFFFFF;endArrow=none;endFill=0;" edge="1" parent="1" source="42" target="55">
                    <mxGeometry relative="1" as="geometry"/>
                </mxCell>
                <mxCell id="42" value="A" style="shape=trapezoid;perimeter=trapezoidPerimeter;whiteSpace=wrap;html=1;fixedSize=1;size=15;fillColor=#de8f05;" parent="1" vertex="1">
                    <mxGeometry x="244" y="367" width="50" height="20" as="geometry"/>
                </mxCell>
                <mxCell id="46" style="edgeStyle=orthogonalEdgeStyle;rounded=1;comic=0;jumpSize=3;html=1;exitX=0.5;exitY=0;exitDx=0;exitDy=0;entryX=0;entryY=0.5;entryDx=0;entryDy=0;strokeWidth=2;endArrow=classicThin;endFill=1;endSize=1;" parent="1" source="43" target="45" edge="1">
                    <mxGeometry relative="1" as="geometry"/>
                </mxCell>
                <mxCell id="43" value="B" style="shape=trapezoid;perimeter=trapezoidPerimeter;whiteSpace=wrap;html=1;fixedSize=1;size=15;rotation=0;fillColor=#de8f05;horizontal=1;flipV=1;" parent="1" vertex="1">
                    <mxGeometry x="244" y="328" width="50" height="20" as="geometry"/>
                </mxCell>
                <mxCell id="49" style="edgeStyle=orthogonalEdgeStyle;rounded=1;comic=0;jumpSize=3;html=1;entryX=0.827;entryY=1.003;entryDx=0;entryDy=0;entryPerimeter=0;strokeWidth=2;endArrow=classicThin;endFill=1;endSize=1;" parent="1" source="45" target="26" edge="1">
                    <mxGeometry relative="1" as="geometry"/>
                </mxCell>
                <mxCell id="45" value="+" style="ellipse;whiteSpace=wrap;html=1;aspect=fixed;" parent="1" vertex="1">
                    <mxGeometry x="289" y="295" width="10" height="10" as="geometry"/>
                </mxCell>
                <mxCell id="51" value="d" style="rounded=0;whiteSpace=wrap;html=1;fillColor=#ca9161;fontColor=#FFFFFF;" vertex="1" parent="1">
                    <mxGeometry x="140" y="350" width="20" height="15" as="geometry"/>
                </mxCell>
                <mxCell id="52" value="b" style="rounded=0;whiteSpace=wrap;html=1;fillColor=#ca9161;fontColor=#FFFFFF;" vertex="1" parent="1">
                    <mxGeometry x="125" y="310" width="50" height="15" as="geometry"/>
                </mxCell>
                <mxCell id="54" value="d" style="rounded=0;whiteSpace=wrap;html=1;fillColor=#ca9161;fontColor=#FFFFFF;" vertex="1" parent="1">
                    <mxGeometry x="259" y="350" width="20" height="15" as="geometry"/>
                </mxCell>
                <mxCell id="55" value="b" style="rounded=0;whiteSpace=wrap;html=1;fillColor=#ca9161;fontColor=#FFFFFF;" vertex="1" parent="1">
                    <mxGeometry x="244" y="310" width="50" height="15" as="geometry"/>
                </mxCell>
            </root>
        </mxGraphModel>
    </diagram>
</mxfile>